<svg width="11" height="19" viewBox="0 0 11 19" fill="none" xmlns="http://www.w3.org/2000/svg">
<path d="M4.79545 18.8182V0.636363H5.96023V18.8182H4.79545ZM8.71591 6.09091C8.63068 5.37121 8.28504 4.8125 7.67898 4.41477C7.07292 4.01705 6.32955 3.81818 5.44886 3.81818C4.80492 3.81818 4.24148 3.92235 3.75852 4.13068C3.2803 4.33901 2.90625 4.62547 2.63636 4.99006C2.37121 5.35464 2.23864 5.76894 2.23864 6.23295C2.23864 6.62121 2.33097 6.95502 2.51562 7.23438C2.70502 7.509 2.9465 7.73864 3.24006 7.9233C3.53362 8.10322 3.84138 8.25237 4.16335 8.37074C4.48532 8.48437 4.78125 8.5767 5.05114 8.64773L6.52841 9.04545C6.9072 9.14489 7.3286 9.2822 7.79261 9.45739C8.26136 9.63258 8.70881 9.87169 9.13494 10.1747C9.56581 10.473 9.92093 10.8565 10.2003 11.3253C10.4796 11.794 10.6193 12.3693 10.6193 13.0511C10.6193 13.8371 10.4134 14.5473 10.0014 15.1818C9.59422 15.8163 8.99763 16.3205 8.21165 16.6946C7.4304 17.0687 6.48106 17.2557 5.36364 17.2557C4.32197 17.2557 3.41998 17.0876 2.65767 16.7514C1.90009 16.4152 1.3035 15.9465 0.867898 15.3452C0.437027 14.7438 0.193182 14.0455 0.136364 13.25H1.95455C2.00189 13.7992 2.18655 14.2538 2.50852 14.6136C2.83523 14.9687 3.24716 15.2339 3.74432 15.4091C4.24621 15.5795 4.78598 15.6648 5.36364 15.6648C6.03598 15.6648 6.63968 15.5559 7.17472 15.3381C7.70975 15.1155 8.13352 14.8078 8.44602 14.4148C8.75852 14.017 8.91477 13.553 8.91477 13.0227C8.91477 12.5398 8.77983 12.1468 8.50994 11.8438C8.24006 11.5407 7.88494 11.2945 7.4446 11.1051C7.00426 10.9157 6.52841 10.75 6.01705 10.608L4.22727 10.0966C3.09091 9.76989 2.19129 9.3035 1.52841 8.69744C0.86553 8.09138 0.534091 7.2983 0.534091 6.31818C0.534091 5.50379 0.754261 4.79356 1.1946 4.1875C1.63968 3.5767 2.23627 3.10322 2.98438 2.76705C3.73722 2.42614 4.57765 2.25568 5.50568 2.25568C6.44318 2.25568 7.27652 2.42377 8.00568 2.75994C8.73485 3.09138 9.3125 3.54593 9.73864 4.12358C10.1695 4.70123 10.3968 5.35701 10.4205 6.09091H8.71591Z" fill="black"/>
</svg>
